<svg width="102" height="22" viewBox="0 0 102 22" fill="none" xmlns="http://www.w3.org/2000/svg">
<path d="M0.663574 21.7659H24.6208V2.24966H13.7312V4.41799H22.4428V19.5973H2.8416V15.2604H0.663574V21.7659ZM0.663574 4.41799H2.8416V6.58658H0.663574V4.41799Z" fill="#231F20"/>
<path d="M9.37622 8.75461H11.5543V10.9232H9.37622V8.75461Z" fill="#231F20"/>
<path d="M11.5539 4.41797V2.24964H7.19813V0.0810547H5.0201V2.24964H2.84234V4.41797H5.0201V6.58656H2.84234V8.75488H5.0201V10.9235H0.664307V13.0921H5.0201V15.2604H7.19813V13.0921H9.37589V10.9235H7.19813V8.75488H9.37589V6.58656H7.19813V4.41797H11.5539Z" fill="#231F20"/>
<path d="M34.9279 15.3161C35.301 15.3161 35.6561 15.2322 35.9931 15.0644C36.3301 14.8966 36.5648 14.6509 36.6972 14.3274H36.7694V15.6935C36.7694 16.0651 36.6882 16.3317 36.5257 16.4935C36.3632 16.6553 36.0894 16.7362 35.7042 16.7362H32.6169C32.3642 16.7362 32.2378 16.862 32.2378 17.1137V18.354C32.2378 18.4858 32.2649 18.5787 32.319 18.6326C32.3732 18.6866 32.4725 18.7135 32.6169 18.7135H36.0834C37.0222 18.7135 37.7534 18.4619 38.277 17.9585C38.8006 17.4552 39.0624 16.7362 39.0624 15.8014V6.93917C39.0624 6.68751 38.93 6.56168 38.6652 6.56168H34.4946C33.5437 6.56168 32.8095 6.81334 32.292 7.31667C31.7744 7.82001 31.5156 8.54504 31.5156 9.49179V12.3859C31.5156 13.3327 31.7533 14.0577 32.2288 14.5611C32.7042 15.0644 33.4053 15.3161 34.3321 15.3161H34.9279ZM36.7694 11.9725C36.7694 12.8713 36.3542 13.3207 35.5237 13.3207H34.8557C34.4705 13.3207 34.1997 13.2428 34.0432 13.087C33.8868 12.9312 33.8085 12.6616 33.8085 12.2781V9.59964C33.8085 9.21615 33.8868 8.94351 34.0432 8.78173C34.1997 8.61994 34.4705 8.53905 34.8557 8.53905H36.5528C36.6972 8.53905 36.7694 8.60496 36.7694 8.73679V11.9725Z" fill="#231F20"/>
<path d="M40.6592 5.01555C40.6592 5.25523 40.7795 5.37507 41.0203 5.37507H42.591C42.8317 5.37507 42.9521 5.25523 42.9521 5.01555V3.43365C42.9521 3.20595 42.8317 3.0921 42.591 3.0921H41.0203C40.7795 3.0921 40.6592 3.21194 40.6592 3.45163V5.01555ZM40.6592 15.3518C40.6592 15.6035 40.7856 15.7293 41.0383 15.7293H42.591C42.7234 15.7293 42.8167 15.7054 42.8708 15.6574C42.925 15.6095 42.9521 15.5076 42.9521 15.3518V6.93899C42.9521 6.68733 42.8257 6.56149 42.5729 6.56149H41.0203C40.7795 6.56149 40.6592 6.68733 40.6592 6.93899V15.3518Z" fill="#231F20"/>
<path d="M47.8007 15.3161C48.1738 15.3161 48.5289 15.2322 48.8659 15.0644C49.2029 14.8966 49.4376 14.6509 49.57 14.3274H49.6422V15.6935C49.6422 16.0651 49.561 16.3317 49.3985 16.4935C49.236 16.6553 48.9622 16.7362 48.577 16.7362H45.4897C45.237 16.7362 45.1106 16.862 45.1106 17.1137V18.354C45.1106 18.4858 45.1377 18.5787 45.1918 18.6326C45.246 18.6866 45.3453 18.7135 45.4897 18.7135H48.9562C49.895 18.7135 50.6262 18.4619 51.1498 17.9585C51.6734 17.4552 51.9352 16.7362 51.9352 15.8014V6.93917C51.9352 6.68751 51.8028 6.56168 51.538 6.56168H47.3674C46.4165 6.56168 45.6823 6.81334 45.1648 7.31667C44.6472 7.82001 44.3884 8.54504 44.3884 9.49179V12.3859C44.3884 13.3327 44.6261 14.0577 45.1016 14.5611C45.577 15.0644 46.2781 15.3161 47.2049 15.3161H47.8007ZM49.6422 11.9725C49.6422 12.8713 49.227 13.3207 48.3965 13.3207H47.7285C47.3433 13.3207 47.0725 13.2428 46.916 13.087C46.7596 12.9312 46.6813 12.6616 46.6813 12.2781V9.59964C46.6813 9.21615 46.7596 8.94351 46.916 8.78173C47.0725 8.61994 47.3433 8.53905 47.7285 8.53905H49.4256C49.57 8.53905 49.6422 8.60496 49.6422 8.73679V11.9725Z" fill="#231F20"/>
<path d="M57.1249 15.7297C57.3777 15.7297 57.5221 15.6038 57.5582 15.3522L58.6415 9.27622H58.7859L59.8872 15.3522C59.9354 15.6038 60.0798 15.7297 60.3206 15.7297H62.3788C62.6195 15.7297 62.7639 15.6038 62.8121 15.3522L64.6175 6.93933C64.6777 6.68766 64.5874 6.56183 64.3467 6.56183H62.6135C62.3607 6.56183 62.2163 6.68766 62.1802 6.93933L61.3497 13.0872H61.2052L59.9595 6.93933C59.9113 6.68766 59.7609 6.56183 59.5081 6.56183H57.9193C57.6786 6.56183 57.5402 6.68766 57.5041 6.93933L56.2222 13.0872H56.0778L55.2653 6.93933C55.2413 6.68766 55.0968 6.56183 54.832 6.56183H53.0988C52.8701 6.56183 52.7798 6.68766 52.828 6.93933L54.6334 15.3522C54.6936 15.6038 54.838 15.7297 55.0667 15.7297H57.1249Z" fill="#231F20"/>
<path d="M69.9344 15.7295C70.8733 15.7295 71.6045 15.4748 72.128 14.9655C72.6516 14.4562 72.9134 13.7342 72.9134 12.7994V9.49179C72.9134 8.55703 72.6516 7.83499 72.128 7.32566C71.6045 6.81634 70.8733 6.56168 69.9344 6.56168H68.3276C67.3767 6.56168 66.6425 6.81334 66.125 7.31667C65.6074 7.82001 65.3486 8.54504 65.3486 9.49179V12.7994C65.3486 13.7461 65.6074 14.4712 66.125 14.9745C66.6425 15.4778 67.3767 15.7295 68.3276 15.7295H69.9344ZM68.6706 13.7701C68.2855 13.7701 68.0147 13.6922 67.8582 13.5364C67.7017 13.3806 67.6235 13.111 67.6235 12.7275V9.56369C67.6235 9.1802 67.7017 8.91056 67.8582 8.75476C68.0147 8.59897 68.2855 8.52107 68.6706 8.52107H69.5914C69.9766 8.52107 70.2504 8.59897 70.4129 8.75476C70.5754 8.91056 70.6566 9.1802 70.6566 9.56369V12.7275C70.6566 13.111 70.5754 13.3806 70.4129 13.5364C70.2504 13.6922 69.9766 13.7701 69.5914 13.7701H68.6706Z" fill="#231F20"/>
<path d="M76.1557 15.7295C76.4085 15.7295 76.5349 15.6037 76.5349 15.352V9.94119C76.5349 9.00643 76.9501 8.53905 77.7806 8.53905H79.0264C79.1588 8.55103 79.252 8.53006 79.3062 8.47613C79.3604 8.42221 79.3874 8.32334 79.3874 8.17953V6.93918C79.3874 6.68751 79.2671 6.56168 79.0264 6.56168H78.3764C78.0033 6.56168 77.6482 6.64556 77.3112 6.81334C76.9742 6.98112 76.7395 7.22679 76.6071 7.55036H76.5349V6.93918C76.5349 6.68751 76.4085 6.56168 76.1557 6.56168H74.6211C74.3683 6.56168 74.2419 6.68751 74.2419 6.93918V15.352C74.2419 15.6037 74.3683 15.7295 74.6211 15.7295H76.1557Z" fill="#231F20"/>
<path d="M85.3351 6.56149C85.0583 6.56149 84.8537 6.68134 84.7213 6.92102L82.5547 10.7499C82.4464 10.9537 82.4464 11.1514 82.5547 11.3431L84.8476 15.3518C84.9439 15.5076 85.0372 15.6095 85.1275 15.6574C85.2178 15.7054 85.3652 15.7293 85.5698 15.7293H87.1225C87.279 15.7293 87.3873 15.6844 87.4475 15.5945C87.5076 15.5046 87.5016 15.3998 87.4294 15.2799L84.9199 11.0196V10.9477L87.3211 7.0109C87.4053 6.87907 87.4234 6.77122 87.3753 6.68733C87.3271 6.60344 87.2308 6.56149 87.0864 6.56149H85.3351ZM81.977 15.7293C82.2298 15.7293 82.3561 15.6035 82.3561 15.3518V3.4696C82.3561 3.21794 82.2298 3.0921 81.977 3.0921H80.4424C80.1896 3.0921 80.0632 3.21794 80.0632 3.4696V15.3518C80.0632 15.6035 80.1896 15.7293 80.4424 15.7293H81.977Z" fill="#231F20"/>
<path d="M94.8948 15.7295C95.0392 15.7295 95.1385 15.7025 95.1927 15.6486C95.2468 15.5947 95.2739 15.5018 95.2739 15.37V14.1836C95.2739 13.9199 95.1475 13.7881 94.8948 13.7881H91.2478C90.8626 13.7881 90.5888 13.7072 90.4263 13.5454C90.2638 13.3836 90.1826 13.117 90.1826 12.7455V12.35C90.1826 12.2182 90.2548 12.1523 90.3992 12.1523H94.9309C95.1836 12.1523 95.31 12.0264 95.31 11.7748V9.49179C95.31 8.54504 95.0512 7.82001 94.5337 7.31667C94.0161 6.81334 93.2819 6.56168 92.3311 6.56168H90.9048C89.9539 6.56168 89.2197 6.81334 88.7021 7.31667C88.1846 7.82001 87.9258 8.54504 87.9258 9.49179V12.7994C87.9258 13.7461 88.1846 14.4712 88.7021 14.9745C89.2197 15.4778 89.9539 15.7295 90.9048 15.7295H94.8948ZM90.3992 10.6243C90.2668 10.6243 90.2006 10.5584 90.2006 10.4265V9.56369C90.2006 9.1802 90.2789 8.91056 90.4353 8.75476C90.5918 8.59897 90.8626 8.52107 91.2478 8.52107H92.0061C92.3912 8.52107 92.662 8.59897 92.8185 8.75476C92.975 8.91056 93.0532 9.1802 93.0532 9.56369V10.4265C93.0532 10.5584 92.987 10.6243 92.8546 10.6243H90.3992Z" fill="#231F20"/>
<path d="M98.4614 15.7295C98.7141 15.7295 98.8405 15.6037 98.8405 15.352V9.94119C98.8405 9.00643 99.2558 8.53905 100.086 8.53905H101.332C101.464 8.55103 101.558 8.53006 101.612 8.47613C101.666 8.42221 101.693 8.32334 101.693 8.17953V6.93918C101.693 6.68751 101.573 6.56168 101.332 6.56168H100.682C100.309 6.56168 99.9539 6.64556 99.6169 6.81334C99.2798 6.98112 99.0451 7.22679 98.9127 7.55036H98.8405V6.93918C98.8405 6.68751 98.7141 6.56168 98.4614 6.56168H96.9267C96.674 6.56168 96.5476 6.68751 96.5476 6.93918V15.352C96.5476 15.6037 96.674 15.7295 96.9267 15.7295H98.4614Z" fill="#231F20"/>
</svg>
