<svg width="20" height="21" viewBox="0 0 20 21" fill="none" xmlns="http://www.w3.org/2000/svg">
<path d="M6.87108 0.558743C4.38605 1.40903 2.26857 3.26868 1.08914 5.62205C0.677712 6.43394 0.381484 7.29519 0.200455 8.18936C-0.249373 10.4056 0.0633127 12.7699 1.08365 14.7887C1.74742 16.1052 2.70194 17.2792 3.85394 18.1953C4.94559 19.062 6.21279 19.7093 7.56227 20.0659C9.26284 20.5212 11.0731 20.5103 12.7847 20.1208C14.3316 19.7642 15.7963 19.0236 16.9648 17.9484C18.1991 16.8129 19.0823 15.3208 19.5485 13.7135C20.0587 11.9635 20.1245 10.0929 19.8064 8.29359C16.6082 8.29359 13.4046 8.29359 10.2064 8.29359C10.2064 9.62113 10.2064 10.9487 10.2064 12.2762C12.0606 12.2762 13.9147 12.2762 15.7689 12.2762C15.5549 13.5489 14.7979 14.7119 13.7282 15.4305C13.0535 15.8858 12.28 16.1766 11.4791 16.3192C10.6782 16.4563 9.84433 16.4728 9.04342 16.3137C8.22604 16.1491 7.45256 15.809 6.77233 15.3318C5.68616 14.5692 4.85782 13.4556 4.43542 12.1994C4.00205 10.9212 3.99656 9.50045 4.43542 8.22776C4.74262 7.32811 5.24731 6.49976 5.91656 5.81954C6.73942 4.97474 7.80913 4.37131 8.96662 4.12445C9.95404 3.916 10.9963 3.9544 11.9618 4.24514C12.7847 4.49199 13.5417 4.94731 14.1616 5.53976C14.7869 4.91439 15.4123 4.28902 16.0377 3.66365C16.3668 3.32903 16.7124 3.00537 17.0306 2.65977C16.0816 1.78206 14.9625 1.0744 13.7447 0.624571C11.5504 -0.187314 9.08181 -0.203771 6.87108 0.558743Z" fill="white"/>
<path d="M6.87129 0.558523C9.07655 -0.20399 11.5506 -0.187533 13.7449 0.618866C14.9627 1.06869 16.0763 1.77086 17.0308 2.65406C16.7127 2.99966 16.3671 3.32332 16.0379 3.65795C15.4125 4.28332 14.7872 4.90869 14.1618 5.53406C13.5419 4.9416 12.7849 4.49178 11.962 4.23943C10.9965 3.94869 9.95426 3.9048 8.96683 4.11875C7.81483 4.3656 6.74512 4.96903 5.91678 5.81383C5.24752 6.48857 4.74284 7.3224 4.43564 8.22206C3.32204 7.35531 2.20844 6.49406 1.08936 5.62732C2.26878 3.26846 4.38627 1.40881 6.87129 0.558523Z" fill="#EA4335"/>
<path d="M0.205903 8.18364C0.386931 7.29496 0.683159 6.42822 1.09459 5.61633C2.20819 6.48307 3.32178 7.34433 4.44087 8.21107C4.00201 9.48924 4.00201 10.91 4.44087 12.1827C3.32727 13.0495 2.21367 13.9162 1.10007 14.7775C0.0687601 12.7642 -0.243925 10.3999 0.205903 8.18364Z" fill="#FBBC05"/>
<path d="M10.2063 8.28796C13.4045 8.28796 16.6081 8.28796 19.8063 8.28796C20.1245 10.0818 20.0531 11.9524 19.5485 13.7078C19.0822 15.3152 18.199 16.8073 16.9647 17.9428C15.884 17.1035 14.8033 16.2642 13.7226 15.4249C14.7923 14.7062 15.5494 13.5433 15.7633 12.2706C13.9091 12.2706 12.055 12.2706 10.2008 12.2706C10.2063 10.943 10.2063 9.61551 10.2063 8.28796Z" fill="#4285F4"/>
<path d="M1.08899 14.7829C2.20259 13.9216 3.31619 13.0549 4.42979 12.1881C4.85767 13.4443 5.68053 14.5579 6.7667 15.3204C7.44692 15.7977 8.22589 16.1378 9.03778 16.3024C9.83869 16.467 10.667 16.445 11.4734 16.3079C12.2743 16.1652 13.0478 15.8745 13.7226 15.4192C14.8033 16.2585 15.8839 17.0978 16.9646 17.9371C15.7962 19.0178 14.3315 19.7529 12.7845 20.1095C11.073 20.499 9.26269 20.5099 7.56212 20.0546C6.21264 19.698 4.94544 19.0562 3.85379 18.184C2.70727 17.2734 1.75276 16.0994 1.08899 14.7829Z" fill="#34A853"/>
</svg>
