<svg width="111" height="27" viewBox="0 0 111 27" fill="none" xmlns="http://www.w3.org/2000/svg">
<path d="M10.9303 14.3045C10.8367 14.2477 10.759 14.1682 10.7044 14.0734C10.6498 13.9785 10.62 13.8714 10.6179 13.762C10.619 13.6843 10.6354 13.6075 10.6661 13.5361C10.6968 13.4648 10.7413 13.4001 10.7971 13.3459C10.8528 13.2917 10.9186 13.249 10.9908 13.2203C11.0631 13.1916 11.1402 13.1773 11.2179 13.1784C11.3735 13.1828 11.5245 13.2313 11.6536 13.3182C12.2664 13.7246 12.9815 13.9496 13.7167 13.9675C14.777 13.9675 15.3606 13.5072 15.3606 12.8579C15.3606 12.2085 15.0811 11.9291 13.9139 11.8058L13.1413 11.7318C11.6947 11.5756 10.9385 10.8359 10.9385 9.65226C10.9385 8.24673 11.9413 7.40012 13.6673 7.40012C14.4358 7.39114 15.1938 7.57782 15.8702 7.94261C15.9816 7.98382 16.078 8.0576 16.1469 8.15435C16.2158 8.2511 16.254 8.36634 16.2565 8.48509C16.2576 8.5588 16.2439 8.63198 16.2162 8.70029C16.1885 8.7686 16.1474 8.83066 16.0953 8.88278C16.0431 8.93491 15.9811 8.97603 15.9128 9.00373C15.8444 9.03143 15.7713 9.04513 15.6976 9.04402C15.5369 9.03754 15.3797 8.99542 15.2373 8.92073C14.7245 8.6723 14.1631 8.54038 13.5934 8.53441C12.6646 8.53441 12.1878 8.9536 12.1878 9.55363C12.1878 10.1536 12.5248 10.4495 13.6345 10.5564L14.4071 10.6304C15.9524 10.803 16.6264 11.5263 16.6264 12.7263C16.6264 14.173 15.5743 15.1347 13.618 15.1347C12.6587 15.1366 11.7214 14.8471 10.9303 14.3045Z" fill="#231F20"/>
<path d="M17.4312 19.0877H10.1076C10.0448 19.0963 9.98093 19.0913 9.92021 19.0732C9.85949 19.055 9.80336 19.0241 9.7556 18.9824C9.70784 18.9407 9.66955 18.8893 9.64332 18.8316C9.61709 18.7739 9.60352 18.7113 9.60352 18.6479C9.60352 18.5845 9.61709 18.5219 9.64332 18.4642C9.66955 18.4065 9.70784 18.3551 9.7556 18.3134C9.80336 18.2718 9.85949 18.2408 9.92021 18.2227C9.98093 18.2045 10.0448 18.1996 10.1076 18.2082H17.4312C17.494 18.1996 17.5579 18.2045 17.6186 18.2227C17.6793 18.2408 17.7355 18.2718 17.7832 18.3134C17.831 18.3551 17.8693 18.4065 17.8955 18.4642C17.9217 18.5219 17.9353 18.5845 17.9353 18.6479C17.9353 18.7113 17.9217 18.7739 17.8955 18.8316C17.8693 18.8893 17.831 18.9407 17.7832 18.9824C17.7355 19.0241 17.6793 19.055 17.6186 19.0732C17.5579 19.0913 17.494 19.0963 17.4312 19.0877Z" fill="#231F20"/>
<path d="M13.7252 26.1647C11.1787 26.1664 8.68892 25.4126 6.57092 23.9989C4.45292 22.5851 2.80184 20.5749 1.82659 18.2226C0.851346 15.8703 0.595751 13.2815 1.09215 10.7839C1.58854 8.28625 2.81462 5.99198 4.61526 4.19134C6.4159 2.3907 8.71017 1.16462 11.2078 0.668227C13.7054 0.171831 16.2942 0.427427 18.6465 1.40267C20.9989 2.37792 23.0091 4.029 24.4228 6.147C25.8365 8.265 26.5903 10.7548 26.5887 13.3012C26.5821 16.7108 25.2248 19.9789 22.8138 22.3899C20.4029 24.8009 17.1348 26.1582 13.7252 26.1647ZM13.7252 1.62956C11.4167 1.62956 9.16012 2.31409 7.24072 3.59659C5.32132 4.87909 3.82534 6.70196 2.94194 8.83468C2.05853 10.9674 1.8274 13.3142 2.27775 15.5783C2.7281 17.8423 3.83972 19.922 5.47204 21.5544C7.10435 23.1867 9.18404 24.2983 11.4481 24.7486C13.7122 25.199 16.059 24.9679 18.1917 24.0845C20.3244 23.2011 22.1473 21.7051 23.4298 19.7857C24.7123 17.8663 25.3968 15.6097 25.3968 13.3012C25.3946 10.2064 24.1643 7.23891 21.9759 5.05052C19.7875 2.86213 16.82 1.63174 13.7252 1.62956Z" fill="#231F20"/>
<path d="M34.4792 17.8053C34.3727 17.741 34.2844 17.6507 34.2226 17.5428C34.1607 17.435 34.1274 17.3131 34.1257 17.1888C34.1257 17.1 34.1435 17.012 34.1779 16.9302C34.2124 16.8483 34.2629 16.7742 34.3265 16.7121C34.3901 16.6501 34.4654 16.6014 34.5481 16.5689C34.6308 16.5364 34.7191 16.5208 34.808 16.523C34.9838 16.5273 35.1548 16.5815 35.3011 16.6792C35.9975 17.1388 36.8095 17.3923 37.6437 17.4107C38.8519 17.4107 39.4848 16.8847 39.4848 16.1531C39.4848 15.4216 39.1725 15.1011 37.8409 14.9613L36.9697 14.8709C35.3258 14.6983 34.5038 13.8599 34.5038 12.5119C34.5038 10.9173 35.6381 9.95566 37.6026 9.95566C38.4632 9.951 39.3112 10.163 40.0684 10.5721C40.1943 10.6197 40.303 10.7038 40.3806 10.8136C40.4583 10.9235 40.5013 11.0541 40.5041 11.1886C40.5052 11.272 40.4895 11.3548 40.4581 11.4321C40.4267 11.5094 40.3801 11.5796 40.3211 11.6386C40.2622 11.6976 40.1919 11.7441 40.1147 11.7756C40.0374 11.807 39.9546 11.8226 39.8712 11.8215C39.6875 11.8149 39.5078 11.7672 39.3451 11.6817C38.7654 11.4018 38.1312 11.2531 37.4875 11.2461C36.4354 11.2461 35.8929 11.7146 35.8929 12.4051C35.8929 13.0955 36.2792 13.4161 37.5368 13.5394L38.4081 13.6298C40.1588 13.8188 40.9315 14.6408 40.9315 16.0134C40.9315 17.6573 39.7396 18.7423 37.5204 18.7423C36.4353 18.744 35.3751 18.4174 34.4792 17.8053Z" fill="#231F20"/>
<path d="M45.4286 18.6277C43.7108 18.6277 43.0861 17.9126 43.0861 16.1618V11.4603C43.0891 11.4456 43.0884 11.4304 43.0841 11.4161C43.0799 11.4017 43.0721 11.3886 43.0615 11.378C43.0509 11.3674 43.0378 11.3597 43.0234 11.3554C43.0091 11.3511 42.9939 11.3504 42.9792 11.3534H42.5107C42.3527 11.3534 42.2011 11.2907 42.0893 11.1789C41.9776 11.0671 41.9148 10.9156 41.9148 10.7575C41.9148 10.5995 41.9776 10.4479 42.0893 10.3361C42.2011 10.2244 42.3527 10.1616 42.5107 10.1616H42.9792C42.9939 10.1646 43.0091 10.164 43.0234 10.1597C43.0378 10.1554 43.0509 10.1476 43.0615 10.137C43.0721 10.1264 43.0799 10.1133 43.0841 10.099C43.0884 10.0846 43.0891 10.0694 43.0861 10.0548V8.22181C43.0752 8.11867 43.086 8.01439 43.118 7.91574C43.15 7.81708 43.2024 7.72625 43.2718 7.64915C43.3412 7.57205 43.426 7.5104 43.5207 7.4682C43.6154 7.426 43.718 7.40419 43.8217 7.40419C43.9254 7.40419 44.028 7.426 44.1227 7.4682C44.2175 7.5104 44.3023 7.57205 44.3716 7.64915C44.441 7.72625 44.4934 7.81708 44.5254 7.91574C44.5574 8.01439 44.5683 8.11867 44.5574 8.22181V10.0548C44.5543 10.0694 44.555 10.0846 44.5593 10.099C44.5636 10.1133 44.5714 10.1264 44.582 10.137C44.5926 10.1476 44.6056 10.1554 44.62 10.1597C44.6343 10.164 44.6495 10.1646 44.6642 10.1616H45.7656C45.9237 10.1616 46.0752 10.2244 46.187 10.3361C46.2988 10.4479 46.3615 10.5995 46.3615 10.7575C46.3615 10.9156 46.2988 11.0671 46.187 11.1789C46.0752 11.2907 45.9237 11.3534 45.7656 11.3534H44.6642C44.6495 11.3504 44.6343 11.3511 44.62 11.3554C44.6056 11.3597 44.5926 11.3674 44.582 11.378C44.5714 11.3886 44.5636 11.4017 44.5593 11.4161C44.555 11.4304 44.5543 11.4456 44.5574 11.4603V16.1125C44.5574 17.0084 44.7875 17.2715 45.6752 17.2715C45.7687 17.2618 45.8631 17.2725 45.952 17.3029C46.041 17.3333 46.1222 17.3827 46.1902 17.4475C46.2582 17.5124 46.3113 17.5912 46.3458 17.6786C46.3804 17.766 46.3956 17.8599 46.3903 17.9537C46.3903 18.3564 46.1273 18.6359 45.5684 18.6359L45.4286 18.6277Z" fill="#231F20"/>
<path d="M48.1233 17.8468V10.8602C48.1124 10.757 48.1233 10.6528 48.1553 10.5541C48.1873 10.4555 48.2397 10.3646 48.309 10.2875C48.3784 10.2104 48.4632 10.1488 48.558 10.1066C48.6527 10.0644 48.7553 10.0426 48.859 10.0426C48.9627 10.0426 49.0652 10.0644 49.16 10.1066C49.2547 10.1488 49.3395 10.2104 49.4089 10.2875C49.4783 10.3646 49.5307 10.4555 49.5626 10.5541C49.5946 10.6528 49.6055 10.757 49.5946 10.8602V11.2465C49.79 10.8471 50.098 10.5136 50.4807 10.2871C50.8634 10.0607 51.304 9.95136 51.7481 9.97248C52.1806 9.96052 52.6087 10.0626 52.9893 10.2684C53.1127 10.3222 53.2179 10.4106 53.2923 10.5229C53.3667 10.6352 53.407 10.7666 53.4085 10.9013C53.4119 10.9983 53.3953 11.0949 53.3598 11.1853C53.3243 11.2756 53.2705 11.3576 53.2019 11.4262C53.1332 11.4949 53.0512 11.5486 52.9609 11.5842C52.8706 11.6197 52.7739 11.6363 52.6769 11.6328C52.549 11.6264 52.4235 11.5957 52.307 11.5424C52.0033 11.4097 51.6767 11.3371 51.3454 11.3287C50.0878 11.3287 49.5782 12.3808 49.5782 13.7945V17.855C49.5891 17.9581 49.5782 18.0624 49.5462 18.161C49.5142 18.2597 49.4618 18.3505 49.3925 18.4276C49.3231 18.5047 49.2383 18.5664 49.1435 18.6086C49.0488 18.6508 48.9462 18.6726 48.8425 18.6726C48.7388 18.6726 48.6363 18.6508 48.5415 18.6086C48.4468 18.5664 48.362 18.5047 48.2926 18.4276C48.2232 18.3505 48.1709 18.2597 48.1389 18.161C48.1069 18.0624 48.096 17.9581 48.1069 17.855L48.1233 17.8468Z" fill="#231F20"/>
<path d="M54.3554 16.4573C54.1429 15.7713 54.0484 15.0542 54.0759 14.3366C54.0447 13.62 54.1336 12.9033 54.339 12.216C54.5927 11.5495 55.0429 10.9759 55.6301 10.5711C56.2173 10.1663 56.9136 9.9496 57.6268 9.9496C58.3399 9.9496 59.0362 10.1663 59.6234 10.5711C60.2106 10.9759 60.6608 11.5495 60.9145 12.216C61.1202 12.8725 61.2146 13.5586 61.194 14.2462C61.1977 14.322 61.1853 14.3978 61.1575 14.4684C61.1296 14.539 61.0871 14.6029 61.0327 14.6557C60.9782 14.7086 60.9131 14.7493 60.8418 14.7751C60.7704 14.8008 60.6943 14.8111 60.6186 14.8052H55.687C55.6723 14.8021 55.6571 14.8028 55.6427 14.8071C55.6284 14.8114 55.6153 14.8192 55.6047 14.8298C55.5941 14.8404 55.5863 14.8534 55.582 14.8678C55.5777 14.8821 55.5771 14.8973 55.5801 14.912C55.5708 15.2544 55.618 15.596 55.7198 15.923C55.8551 16.3706 56.1389 16.7587 56.5244 17.0232C56.91 17.2877 57.3742 17.4128 57.8405 17.3779C58.5755 17.3873 59.2897 17.1336 59.8542 16.6628C59.9943 16.5348 60.1744 16.4593 60.3638 16.4491C60.4454 16.4468 60.5266 16.4612 60.6024 16.4914C60.6782 16.5215 60.7471 16.5669 60.8048 16.6246C60.8625 16.6823 60.9078 16.7511 60.938 16.8269C60.9682 16.9028 60.9826 16.9839 60.9803 17.0655C60.9799 17.1643 60.9592 17.2619 60.9197 17.3524C60.8801 17.4428 60.8224 17.5242 60.7502 17.5916C59.9343 18.3513 58.8565 18.7665 57.7418 18.7505C56.9994 18.8177 56.2567 18.626 55.6395 18.2081C55.0223 17.7901 54.5686 17.1715 54.3554 16.4573ZM59.5666 13.6215C59.5812 13.6246 59.5964 13.6239 59.6108 13.6196C59.6251 13.6153 59.6382 13.6075 59.6488 13.5969C59.6594 13.5863 59.6672 13.5733 59.6715 13.5589C59.6758 13.5446 59.6764 13.5294 59.6734 13.5147C59.6835 13.195 59.6419 12.8758 59.5501 12.5695C59.3964 12.185 59.131 11.8554 58.7882 11.6232C58.4454 11.391 58.0408 11.2669 57.6268 11.2669C57.2127 11.2669 56.8081 11.391 56.4653 11.6232C56.1225 11.8554 55.8571 12.185 55.7034 12.5695C55.6116 12.8758 55.57 13.195 55.5801 13.5147C55.5771 13.5294 55.5777 13.5446 55.582 13.5589C55.5863 13.5733 55.5941 13.5863 55.6047 13.5969C55.6153 13.6075 55.6284 13.6153 55.6427 13.6196C55.6571 13.6239 55.6723 13.6246 55.687 13.6215H59.5666Z" fill="#231F20"/>
<path d="M70.0517 17.929C70.0508 18.0254 70.0302 18.1206 69.9911 18.2088C69.952 18.297 69.8954 18.3762 69.8245 18.4417C69.7537 18.5071 69.6702 18.5574 69.5792 18.5894C69.4882 18.6213 69.3917 18.6344 69.2955 18.6276C69.1646 18.6267 69.0362 18.5922 68.9225 18.5274C68.8088 18.4627 68.7137 18.3698 68.6461 18.2578L68.3174 17.7317C67.9903 18.0795 67.5894 18.3494 67.1441 18.5215C66.6988 18.6936 66.2206 18.7636 65.7447 18.7263C63.8706 18.7263 62.7856 17.7975 62.7856 16.2029C62.7856 14.4686 63.9775 13.6137 66.0734 13.6137H67.9804C67.995 13.6168 68.0102 13.6161 68.0246 13.6118C68.0389 13.6075 68.052 13.5997 68.0626 13.5891C68.0732 13.5785 68.081 13.5655 68.0853 13.5511C68.0896 13.5368 68.0903 13.5216 68.0872 13.5069V13.1041C68.0872 11.9287 67.5447 11.2712 66.0734 11.2712C65.4767 11.2806 64.8896 11.4238 64.3556 11.6904C64.2262 11.7608 64.0833 11.8029 63.9364 11.8137C63.8514 11.8212 63.7657 11.81 63.6855 11.7809C63.6053 11.7518 63.5325 11.7054 63.4721 11.645C63.4118 11.5847 63.3654 11.5118 63.3363 11.4316C63.3071 11.3514 63.2959 11.2658 63.3035 11.1808C63.3028 11.0593 63.3353 10.9399 63.3976 10.8356C63.4599 10.7313 63.5496 10.646 63.6569 10.589C64.4311 10.1384 65.3181 9.91876 66.2132 9.95607C68.4489 9.95607 69.501 11.0246 69.501 13.0877V16.096C69.4813 16.3789 69.5351 16.662 69.6571 16.918L69.953 17.4605C70.0282 17.6047 70.0623 17.7667 70.0517 17.929ZM68.0543 15.833V14.9042C68.0574 14.8895 68.0567 14.8743 68.0524 14.86C68.0481 14.8456 68.0403 14.8326 68.0297 14.822C68.0191 14.8114 68.0061 14.8036 67.9917 14.7993C67.9774 14.795 67.9622 14.7943 67.9475 14.7973H66.3036C64.8652 14.7973 64.2241 15.2165 64.2241 16.1618C64.2241 17.107 64.857 17.4769 65.9748 17.4769C67.2324 17.4769 68.0543 16.8687 68.0543 15.833Z" fill="#231F20"/>
<path d="M71.9427 10.8602C71.9317 10.757 71.9426 10.6528 71.9746 10.5541C72.0066 10.4554 72.059 10.3646 72.1284 10.2875C72.1978 10.2104 72.2826 10.1488 72.3773 10.1066C72.472 10.0644 72.5746 10.0426 72.6783 10.0426C72.782 10.0426 72.8846 10.0644 72.9793 10.1066C73.0741 10.1488 73.1589 10.2104 73.2282 10.2875C73.2976 10.3646 73.35 10.4554 73.382 10.5541C73.414 10.6528 73.4249 10.757 73.414 10.8602V11.115C73.7017 10.7459 74.0729 10.4503 74.4971 10.2526C74.9213 10.0548 75.3863 9.96046 75.854 9.97731C76.3217 9.99416 76.7788 10.1217 77.1876 10.3495C77.5965 10.5773 77.9454 10.8988 78.2059 11.2876C78.5087 10.8556 78.9168 10.5081 79.3914 10.278C79.8661 10.0478 80.3917 9.94268 80.9184 9.97248C82.8088 9.97248 83.9102 11.1643 83.9102 13.1205V17.8467C83.9212 17.9499 83.9103 18.0542 83.8783 18.1528C83.8463 18.2515 83.7939 18.3423 83.7245 18.4194C83.6552 18.4965 83.5703 18.5582 83.4756 18.6004C83.3809 18.6426 83.2783 18.6644 83.1746 18.6644C83.0709 18.6644 82.9683 18.6426 82.8736 18.6004C82.7788 18.5582 82.694 18.4965 82.6247 18.4194C82.5553 18.3423 82.5029 18.2515 82.4709 18.1528C82.4389 18.0542 82.428 17.9499 82.439 17.8467V13.474C82.439 12.126 81.8225 11.3369 80.5649 11.3369C80.2998 11.3301 80.0363 11.3794 79.7916 11.4815C79.5469 11.5836 79.3265 11.7363 79.1449 11.9295C78.9633 12.1228 78.8246 12.3522 78.7379 12.6028C78.6511 12.8533 78.6183 13.1194 78.6415 13.3836V17.8467C78.6525 17.9499 78.6416 18.0542 78.6096 18.1528C78.5776 18.2515 78.5252 18.3423 78.4558 18.4194C78.3865 18.4965 78.3017 18.5582 78.2069 18.6004C78.1122 18.6426 78.0096 18.6644 77.9059 18.6644C77.8022 18.6644 77.6996 18.6426 77.6049 18.6004C77.5102 18.5582 77.4254 18.4965 77.356 18.4194C77.2866 18.3423 77.2342 18.2515 77.2022 18.1528C77.1702 18.0542 77.1593 17.9499 77.1703 17.8467V13.474C77.1703 12.126 76.5538 11.3369 75.2962 11.3369C75.0311 11.3301 74.7676 11.3794 74.5229 11.4815C74.2782 11.5836 74.0578 11.7363 73.8762 11.9295C73.6946 12.1228 73.5559 12.3522 73.4692 12.6028C73.3824 12.8533 73.3496 13.1194 73.3729 13.3836V17.8467C73.3838 17.9499 73.3729 18.0542 73.3409 18.1528C73.3089 18.2515 73.2565 18.3423 73.1871 18.4194C73.1178 18.4965 73.033 18.5582 72.9382 18.6004C72.8435 18.6426 72.7409 18.6644 72.6372 18.6644C72.5335 18.6644 72.4309 18.6426 72.3362 18.6004C72.2415 18.5582 72.1567 18.4965 72.0873 18.4194C72.0179 18.3423 71.9655 18.2515 71.9335 18.1528C71.9015 18.0542 71.8907 17.9499 71.9016 17.8467L71.9427 10.8602Z" fill="#231F20"/>
<path d="M88.3921 18.6274C86.8879 18.6274 86.3454 17.8958 86.3454 16.3917V7.35023C86.3345 7.24709 86.3454 7.14281 86.3774 7.04416C86.4094 6.9455 86.4618 6.85467 86.5311 6.77757C86.6005 6.70047 86.6853 6.63882 86.7801 6.59662C86.8748 6.55442 86.9773 6.53261 87.0811 6.53261C87.1848 6.53261 87.2873 6.55442 87.3821 6.59662C87.4768 6.63882 87.5616 6.70047 87.631 6.77757C87.7004 6.85467 87.7527 6.9455 87.7847 7.04416C87.8167 7.14281 87.8276 7.24709 87.8167 7.35023V16.3095C87.8167 17.0081 88.0469 17.2712 88.6387 17.2712C88.7298 17.2651 88.8212 17.2786 88.9067 17.3107C88.9922 17.3429 89.0699 17.3929 89.1345 17.4575C89.1991 17.5221 89.2492 17.5998 89.2813 17.6853C89.3134 17.7708 89.3269 17.8622 89.3209 17.9534C89.3242 18.0503 89.3062 18.1468 89.2683 18.2361C89.2304 18.3254 89.1735 18.4054 89.1015 18.4704C89.0294 18.5353 88.9441 18.5838 88.8513 18.6123C88.7586 18.6409 88.6608 18.6488 88.5647 18.6356L88.3921 18.6274Z" fill="#231F20"/>
<path d="M90.6831 7.52297C90.6831 7.26792 90.7844 7.02331 90.9648 6.84296C91.1451 6.66261 91.3897 6.56129 91.6448 6.56129C91.8998 6.56129 92.1444 6.66261 92.3248 6.84296C92.5051 7.02331 92.6065 7.26792 92.6065 7.52297C92.6065 7.77803 92.5051 8.02263 92.3248 8.20298C92.1444 8.38333 91.8998 8.48465 91.6448 8.48465C91.3897 8.48465 91.1451 8.38333 90.9648 8.20298C90.7844 8.02263 90.6831 7.77803 90.6831 7.52297ZM90.9133 10.8683C90.9023 10.7652 90.9132 10.6609 90.9452 10.5622C90.9772 10.4636 91.0296 10.3727 91.099 10.2956C91.1683 10.2185 91.2531 10.1569 91.3479 10.1147C91.4426 10.0725 91.5452 10.0507 91.6489 10.0507C91.7526 10.0507 91.8552 10.0725 91.9499 10.1147C92.0446 10.1569 92.1295 10.2185 92.1988 10.2956C92.2682 10.3727 92.3206 10.4636 92.3526 10.5622C92.3846 10.6609 92.3955 10.7652 92.3845 10.8683V17.8467C92.3955 17.9498 92.3846 18.0541 92.3526 18.1527C92.3206 18.2514 92.2682 18.3422 92.1988 18.4193C92.1295 18.4964 92.0446 18.5581 91.9499 18.6003C91.8552 18.6425 91.7526 18.6643 91.6489 18.6643C91.5452 18.6643 91.4426 18.6425 91.3479 18.6003C91.2531 18.5581 91.1683 18.4964 91.099 18.4193C91.0296 18.3422 90.9772 18.2514 90.9452 18.1527C90.9132 18.0541 90.9023 17.9498 90.9133 17.8467V10.8683Z" fill="#231F20"/>
<path d="M94.8979 10.8602C94.887 10.7571 94.8979 10.6528 94.9299 10.5542C94.9619 10.4555 95.0143 10.3647 95.0836 10.2876C95.153 10.2105 95.2378 10.1488 95.3325 10.1066C95.4273 10.0644 95.5298 10.0426 95.6336 10.0426C95.7373 10.0426 95.8398 10.0644 95.9346 10.1066C96.0293 10.1488 96.1141 10.2105 96.1835 10.2876C96.2529 10.3647 96.3052 10.4555 96.3372 10.5542C96.3692 10.6528 96.3801 10.7571 96.3692 10.8602V11.1151C96.6289 10.7402 96.981 10.4388 97.3914 10.2401C97.8018 10.0413 98.2566 9.95201 98.7117 9.98076C100.528 9.98076 101.613 11.2219 101.613 13.1288V17.855C101.624 17.9582 101.613 18.0625 101.581 18.1611C101.549 18.2598 101.497 18.3506 101.428 18.4277C101.358 18.5048 101.273 18.5664 101.179 18.6086C101.084 18.6508 100.981 18.6727 100.878 18.6727C100.774 18.6727 100.671 18.6508 100.577 18.6086C100.482 18.5664 100.397 18.5048 100.328 18.4277C100.258 18.3506 100.206 18.2598 100.174 18.1611C100.142 18.0625 100.131 17.9582 100.142 17.855V13.474C100.142 12.126 99.5255 11.337 98.2679 11.337C98.0028 11.3302 97.7393 11.3794 97.4946 11.4816C97.2499 11.5837 97.0295 11.7364 96.8479 11.9296C96.6663 12.1228 96.5276 12.3523 96.4409 12.6028C96.3541 12.8534 96.3213 13.1195 96.3445 13.3836V17.8468C96.3555 17.95 96.3446 18.0542 96.3126 18.1529C96.2806 18.2515 96.2282 18.3424 96.1588 18.4195C96.0895 18.4966 96.0046 18.5582 95.9099 18.6004C95.8152 18.6426 95.7126 18.6644 95.6089 18.6644C95.5052 18.6644 95.4026 18.6426 95.3079 18.6004C95.2131 18.5582 95.1283 18.4966 95.059 18.4195C94.9896 18.3424 94.9372 18.2515 94.9052 18.1529C94.8732 18.0542 94.8623 17.95 94.8733 17.8468L94.8979 10.8602Z" fill="#231F20"/>
<path d="M103.833 16.4573C103.62 15.7713 103.526 15.0542 103.553 14.3366C103.522 13.62 103.611 12.9033 103.816 12.216C104.07 11.5495 104.52 10.9759 105.108 10.5711C105.695 10.1663 106.391 9.9496 107.104 9.9496C107.817 9.9496 108.514 10.1663 109.101 10.5711C109.688 10.9759 110.138 11.5495 110.392 12.216C110.598 12.8724 110.692 13.5586 110.672 14.2462C110.675 14.322 110.663 14.3978 110.635 14.4684C110.607 14.539 110.565 14.6029 110.51 14.6557C110.456 14.7086 110.391 14.7493 110.319 14.7751C110.248 14.8008 110.172 14.8111 110.096 14.8052H105.164C105.15 14.8021 105.135 14.8028 105.12 14.8071C105.106 14.8114 105.093 14.8192 105.082 14.8298C105.072 14.8404 105.064 14.8534 105.06 14.8678C105.055 14.8821 105.055 14.8973 105.058 14.912C105.048 15.2544 105.096 15.596 105.197 15.923C105.333 16.3706 105.616 16.7587 106.002 17.0232C106.388 17.2877 106.852 17.4128 107.318 17.3779C108.053 17.3873 108.767 17.1336 109.332 16.6628C109.472 16.5348 109.652 16.4593 109.841 16.4491C109.923 16.4468 110.004 16.4612 110.08 16.4914C110.156 16.5215 110.225 16.5669 110.282 16.6246C110.34 16.6823 110.385 16.7511 110.416 16.8269C110.446 16.9028 110.46 16.9839 110.458 17.0655C110.457 17.1642 110.436 17.2617 110.397 17.3521C110.357 17.4425 110.3 17.5239 110.228 17.5916C109.412 18.3513 108.334 18.7665 107.219 18.7505C106.477 18.8177 105.734 18.626 105.117 18.2081C104.5 17.7901 104.046 17.1715 103.833 16.4573ZM109.044 13.6215C109.059 13.6246 109.074 13.6239 109.088 13.6196C109.103 13.6153 109.116 13.6075 109.126 13.5969C109.137 13.5863 109.145 13.5733 109.149 13.5589C109.153 13.5446 109.154 13.5294 109.151 13.5147C109.161 13.195 109.12 12.8758 109.028 12.5695C108.877 12.1817 108.613 11.8484 108.27 11.6134C107.927 11.3784 107.52 11.2527 107.104 11.2527C106.688 11.2527 106.282 11.3784 105.939 11.6134C105.596 11.8484 105.331 12.1817 105.181 12.5695C105.089 12.8757 105.047 13.195 105.058 13.5147C105.055 13.5294 105.055 13.5446 105.06 13.5589C105.064 13.5733 105.072 13.5863 105.082 13.5969C105.093 13.6075 105.106 13.6153 105.12 13.6196C105.135 13.6239 105.15 13.6246 105.164 13.6215H109.044Z" fill="#231F20"/>
</svg>
