<?xml version="1.0" encoding="utf-8"?>
<!-- Generator: Adobe Illustrator 24.3.0, SVG Export Plug-In . SVG Version: 6.00 Build 0)  -->
<svg version="1.1" id="Layer_1" xmlns="http://www.w3.org/2000/svg" xmlns:xlink="http://www.w3.org/1999/xlink" x="0px" y="0px"
	 viewBox="0 0 158 111" style="enable-background:new 0 0 158 111;" xml:space="preserve">
<style type="text/css">
	.st0{fill:#1C1C1C;}
	.st1{fill:#091E42;}
</style>
<g>
	<path class="st0" d="M49.5,98.2c0.6-4.1,1.1-7.3,1.7-11.1c10.6,0,20.9,0,31.2,0.1c3.3,0,6-1.1,6.7-4.6c0.7-3.5-0.8-6.2-4.2-7.6
		c-0.8-0.3-1.5-0.6-2.3-0.9c-6.8-2.6-13.7-5.2-20.5-7.9c-9.1-3.6-14-11.7-12.2-20.4c1.8-9.2,8.5-14.5,18.6-14.6
		c10.5-0.1,20.9,0,32,0.1c-0.4,3.3-0.4,6.2-1.3,8.7C98.8,41,96.5,42,95.1,42c-8.8,0.2-17.7,0.2-26.5,0.2c-3.6,0-6.7,0.6-7.5,4.8
		c-0.8,4.3,1.6,6.4,5.3,7.8c7.3,2.7,14.6,5.5,21.9,8.4c9.1,3.6,13.6,11.5,12,20.6c-1.6,8.5-8.9,14.3-18.4,14.4
		C71.3,98.3,60.9,98.2,49.5,98.2z"/>
	<path class="st0" d="M11,11.2c3.7-0.7,7.4-1.5,11.7-2.3c0,6.5,0,12.4,0,18.9c7.6,0,14.6,0,22.4,0c-0.6,3.8-1,7-1.6,10.9
		c-6.8,0-13.4,0-20,0c0,11.8-1,22.9,0.2,33.8c1,9.2,8.6,13.2,17.4,14.4c2.5,0.3,6,0.1,4.5,4.4c-1.1,3.3-0.8,8.4-6.9,6.3
		c-5.4-1.9-11.3-3.1-16.2-5.9c-7-4-11.2-10.9-11.4-18.9C10.6,52.4,11,32,11,11.2z"/>
	<path class="st0" d="M106.8,97.2c-0.5-0.7-0.8-1-0.8-1.3c0.2-16-0.1-32,0.9-47.9c0.5-7.2,5.6-13,12.2-16.2c5.7-2.8,12-4.3,18.7-6.5
		c0.5,3.6,1.1,5.9,0.9,8.1c-0.1,1.3-1.2,2.9-2.3,3.5c-1.7,0.9-3.8,1.1-5.7,1.7c-8.7,2.6-12.9,8-13,17.2c-0.1,11.8-0.3,23.7,0,35.5
		c0.1,4.9-1.4,6.7-6.1,6C109.8,97,108.2,97.2,106.8,97.2z"/>
	<circle class="st1" cx="138.2" cy="91.4" r="8.2"/>
</g>
</svg>
