<svg width="70" height="46" viewBox="0 0 70 46" fill="none" xmlns="http://www.w3.org/2000/svg">
<path d="M0.741984 43.7833C0.741984 43.7833 1.59106 44.089 2.50808 44.089C3.49303 44.089 4.13835 43.9531 4.47799 43.6135C4.7497 43.3078 4.88555 42.8323 4.85158 42.1191V37.3642H6.31202V42.3229C6.27805 44.5305 5.22518 45.4475 2.74583 45.4475C1.5571 45.4475 0.708008 45.2438 0.708008 45.2438V43.7833H0.741984Z" fill="#231F20"/>
<path d="M10.9678 38.7871C13.3113 38.7871 14.7378 40.0437 14.7378 42.1834C14.7378 43.7118 13.7529 45.4779 10.9678 45.4779C8.18281 45.4779 7.19788 43.7118 7.19788 42.1834C7.19788 40.0437 8.62434 38.7871 10.9678 38.7871ZM13.2774 42.0816C13.2774 40.7909 12.4283 40.0777 10.9678 40.0777C9.5074 40.0777 8.65831 40.8249 8.65831 42.0816C8.65831 43.8816 10.0848 44.1533 10.9678 44.1533C11.8509 44.1533 13.2774 43.8816 13.2774 42.0816Z" fill="#231F20"/>
<path d="M20.9155 38.9225V41.4698H17.0776V38.9225H15.6172V45.3077H17.0776V42.7604H20.9155V45.3077H22.3759V38.9225H20.9155Z" fill="#231F20"/>
<path d="M44.2483 43.9831V42.7604H47.6447V41.4698H44.2483V40.2131H48.6296V38.9225H42.7539V45.3077H48.6296V43.9831H44.2483Z" fill="#231F20"/>
<path d="M51.0754 43.9831V42.7604H54.4718V41.4698H51.0754V40.2131H55.4567V38.9225H49.615V45.3077H55.4567V43.9831H51.0754Z" fill="#231F20"/>
<path d="M65.3059 43.9831V42.7604H68.7023V41.4698H65.3059V40.2131H69.6872V38.9225H63.8455V45.3077H69.6872V43.9831H65.3059Z" fill="#231F20"/>
<path d="M37.5247 38.6509C39.4267 38.6509 40.5474 39.6019 40.5474 41.3001C40.5474 43.6436 38.6455 43.9832 37.5247 43.9832H35.4529V38.6509H37.5247ZM37.5247 37.3264H35.6567H33.9585V45.3078H35.6567H37.5247C40.8531 45.3078 42.0079 43.2021 42.0079 41.402C42.0079 38.8547 40.3437 37.3264 37.5247 37.3264Z" fill="#231F20"/>
<path d="M61.335 42.8623C62.4558 42.5906 62.8633 41.7415 62.8633 40.9603C62.8633 39.6697 62.0142 38.9225 60.5878 38.9225H56.4442V45.3077H57.9046V42.9642H59.6368L61.4029 45.3077H63.169L61.335 42.8623ZM57.9726 41.6736V40.2131H60.6557C61.1652 40.2131 61.4708 40.4848 61.4708 40.9264C61.4708 41.5717 60.9614 41.6396 60.6557 41.6396L57.9726 41.6736Z" fill="#231F20"/>
<path d="M28.8641 45.3077L25.0263 40.9603V45.3077H23.5658V38.9225H25.0263L28.8641 43.2359V38.9225H30.3246V45.3077H28.8641Z" fill="#231F20"/>
<path d="M50.6683 3.49826C46.0832 1.25665 40.7848 0 35.2827 0C29.7466 0 24.4823 1.29062 19.8632 3.53222C18.2329 7.47201 17.3159 11.7514 17.3159 16.2686C17.3159 20.7518 18.199 25.0652 19.8632 28.971C24.4823 31.2466 29.7466 32.5032 35.2827 32.5032C40.7848 32.5032 46.0832 31.2466 50.6683 29.005C52.2985 25.0652 53.2155 20.7518 53.2155 16.2686C53.2155 11.7514 52.2985 7.43804 50.6683 3.49826Z" fill="#231F20"/>
<path d="M49.5817 4.4829C45.3023 2.47905 40.3776 1.32428 35.283 1.32428C30.1545 1.32428 25.2637 2.47905 20.9504 4.4829C19.4899 8.15098 18.7087 12.0908 18.7087 16.2683C18.7087 20.4119 19.4899 24.3517 20.9504 28.0197C25.2637 30.0576 30.1545 31.1784 35.283 31.1784C40.3776 31.1784 45.3023 30.0576 49.5817 28.0197C51.0422 24.3517 51.8233 20.4119 51.8233 16.2343C51.8233 12.1247 51.0422 8.15098 49.5817 4.4829Z" fill="white"/>
<path d="M30.2553 12.4987C29.5081 13.9931 28.9647 15.6913 28.7609 17.5933C28.693 17.5933 28.3193 17.6273 28.3193 17.6273C26.757 17.7631 25.0928 17.899 23.5305 18.5103L23.6324 19.1556C26.2136 22.3482 30.1194 24.2841 30.1534 24.2841L29.4062 22.8577C29.2024 22.6878 28.6929 22.586 28.659 22.586C26.8929 22.0086 25.6702 19.699 25.4664 19.3254C26.9268 19.3254 28.1835 19.733 29.4402 20.1406C30.2553 20.4123 31.0025 20.65 31.8176 20.7859C33.2101 21.0236 34.6706 20.7519 35.9951 20.5821C37.048 20.4463 38.1009 20.4462 39.1198 20.5142C39.2557 20.65 40.3425 21.9746 41.3614 22.518C42.652 23.1973 46.422 24.3181 46.6258 24.386C46.6937 24.454 48.1541 25.9144 49.0372 27.6126C44.7917 29.5485 40.0368 30.5674 35.2479 30.5674C30.4591 30.5674 25.6702 29.5145 21.4247 27.5786C20.0322 23.9785 19.319 20.1406 19.319 16.2687C19.319 12.3629 20.0322 8.55896 21.4247 4.95881C25.6702 2.98891 30.4591 1.97 35.2479 1.97C40.0368 1.97 44.8257 2.98891 49.0372 4.95881C50.4297 8.59292 51.1769 12.3969 51.1769 16.3027C51.1769 19.8689 50.5656 23.3671 49.4108 26.6956C48.0523 24.3521 47.5088 23.6728 47.5088 23.6728C47.4749 23.6728 45.6069 22.6879 45.1314 22.2803C44.7578 21.9407 44.588 21.2953 44.3842 20.5481C44.1125 19.4953 43.7389 18.2046 42.72 17.1178L43.8408 16.6423C43.5351 14.4686 40.9199 13.0422 40.9199 13.0422H40.852C41.8369 14.2649 42.0407 15.3177 42.0407 15.963C42.0407 16.3027 42.0067 16.5065 41.9727 16.6084C41.6671 16.5065 39.7651 15.8951 35.3838 16.031C34.7385 16.0649 33.8215 16.031 33.2781 15.4875C32.9724 15.1819 32.8026 14.7743 32.8026 14.1969C32.8026 12.7025 33.4479 10.6647 33.5158 10.393L34.6706 10.5289C36.0291 9.78165 36.5386 9.06841 36.6065 8.96652C35.4517 9.10238 33.8894 9.40805 33.8894 9.40805C33.9913 9.13634 34.297 8.28725 34.297 7.3023C34.297 6.24943 33.9573 5.0607 32.5988 4.38142L32.5309 4.44935C32.5309 4.44935 33.312 5.29845 33.312 6.45321C33.312 6.75888 33.2441 7.13249 33.1082 7.47212C32.6667 7.3023 32.395 7.26834 31.8516 7.26834C31.5799 6.35132 30.7987 5.60412 29.7119 5.19655L29.6779 5.26448C29.6779 5.26448 30.8327 6.07961 30.9006 7.26834C30.3232 7.3023 29.9836 7.37023 29.2703 7.57401C28.9647 7.06455 28.2854 6.72492 27.4363 6.62303L27.4023 6.72492C27.4023 6.72492 28.4212 7.06456 28.625 7.84572C28.0137 8.11743 27.2665 8.55896 26.825 8.93256L26.8589 9.00049C29.4402 7.98158 31.8855 7.77779 32.4969 8.52499C32.5988 8.66085 32.6667 8.7967 32.6667 8.96652C32.6667 9.1703 32.5988 9.44201 32.429 9.71372C31.1383 9.98543 29.2364 10.5288 27.6401 11.1402L27.8439 11.7855C27.8439 11.7855 29.4402 12.1251 30.0515 12.227C30.1534 12.227 30.3911 12.261 30.2553 12.4987Z" fill="#231F20"/>
</svg>
