<svg width="149" height="27" viewBox="0 0 149 27" fill="none" xmlns="http://www.w3.org/2000/svg">
<path d="M99.4341 7.77372H98.6288V4.07432H97.2099V3.31934H100.891V4.03657H99.4724V7.77372H99.4341Z" fill="#231F20"/>
<path d="M102.425 7.77391H101.658V3.13086H102.425V4.94278C102.655 4.64079 102.962 4.33881 103.499 4.33881C104.266 4.33881 104.726 4.82953 104.726 5.62225V7.77391H103.959V5.88649C103.959 5.35801 103.691 5.05602 103.231 5.05602C102.77 5.05602 102.464 5.35801 102.464 5.88649V7.77391H102.425Z" fill="#231F20"/>
<path d="M107.142 7.24498C107.526 7.24498 107.794 7.09398 108.063 6.82974L108.523 7.24498C108.216 7.62247 107.756 7.88671 107.142 7.88671C106.145 7.88671 105.378 7.16948 105.378 6.15026C105.378 5.16879 106.068 4.41382 107.027 4.41382C108.101 4.41382 108.676 5.24429 108.676 6.22576C108.676 6.30126 108.676 6.37676 108.676 6.45225H106.183C106.26 6.94299 106.644 7.24498 107.142 7.24498ZM107.909 5.88602C107.871 5.39529 107.564 5.0178 107.027 5.0178C106.567 5.0178 106.222 5.39529 106.145 5.88602H107.909Z" fill="#231F20"/>
<path d="M111.629 3.31934H112.434V7.05648H114.812V7.77372H111.629V3.31934Z" fill="#231F20"/>
<path d="M117.113 7.24498C117.496 7.24498 117.765 7.09398 118.033 6.82974L118.493 7.24498C118.186 7.62247 117.726 7.88671 117.113 7.88671C116.116 7.88671 115.349 7.16948 115.349 6.15026C115.349 5.16879 116.039 4.41382 116.998 4.41382C118.071 4.41382 118.647 5.24429 118.647 6.22576C118.647 6.30126 118.647 6.37676 118.647 6.45225H116.154C116.231 6.94299 116.614 7.24498 117.113 7.24498ZM117.88 5.88602C117.841 5.39529 117.535 5.0178 116.998 5.0178C116.538 5.0178 116.192 5.39529 116.116 5.88602H117.88Z" fill="#231F20"/>
<path d="M121.599 7.77378V7.35854C121.369 7.62278 121.024 7.84927 120.487 7.84927C119.835 7.84927 119.26 7.47179 119.26 6.83006C119.26 6.11284 119.835 5.73535 120.64 5.73535C121.062 5.73535 121.331 5.81085 121.599 5.88635V5.81085C121.599 5.35787 121.292 5.09363 120.755 5.09363C120.372 5.09363 120.103 5.16913 119.797 5.32012L119.566 4.71614C119.95 4.56515 120.295 4.4519 120.87 4.4519C121.867 4.4519 122.366 4.98038 122.366 5.88635V7.88702H121.599V7.77378ZM121.599 6.37708C121.407 6.30158 121.139 6.22609 120.832 6.22609C120.333 6.22609 120.065 6.41483 120.065 6.75457C120.065 7.05655 120.372 7.2453 120.717 7.2453C121.215 7.2453 121.637 6.94331 121.637 6.52807V6.37708H121.599Z" fill="#231F20"/>
<path d="M125.933 7.77383V7.20761C125.664 7.54734 125.319 7.84932 124.782 7.84932C123.977 7.84932 123.21 7.20761 123.21 6.11293C123.21 4.9805 123.977 4.37653 124.782 4.37653C125.358 4.37653 125.703 4.64077 125.933 4.9805V3.13086H126.7V7.77383H125.933ZM124.974 5.01824C124.437 5.01824 123.977 5.43347 123.977 6.11293C123.977 6.79238 124.437 7.20761 124.974 7.20761C125.511 7.20761 125.971 6.79238 125.971 6.11293C125.933 5.43347 125.473 5.01824 124.974 5.01824Z" fill="#231F20"/>
<path d="M129.192 7.24498C129.575 7.24498 129.844 7.09398 130.112 6.82974L130.573 7.24498C130.266 7.62247 129.806 7.88671 129.192 7.88671C128.195 7.88671 127.428 7.16948 127.428 6.15026C127.428 5.16879 128.118 4.41382 129.077 4.41382C130.151 4.41382 130.726 5.24429 130.726 6.22576C130.726 6.30126 130.726 6.37676 130.726 6.45225H128.233C128.31 6.94299 128.693 7.24498 129.192 7.24498ZM129.959 5.88602C129.921 5.39529 129.614 5.0178 129.077 5.0178C128.617 5.0178 128.272 5.39529 128.195 5.88602H129.959Z" fill="#231F20"/>
<path d="M132.375 7.77374H131.608V4.41412H132.375V5.16909C132.605 4.67836 132.989 4.33862 133.564 4.33862V5.16909H133.526C132.835 5.16909 132.375 5.62207 132.375 6.49029V7.77374Z" fill="#231F20"/>
<path d="M97.4401 11.5483V10.8311H98.2836V11.5483H97.4401ZM97.4785 15.3986V12.039H98.2453V15.3986H97.4785Z" fill="#231F20"/>
<path d="M100.124 15.3986H99.3571V12.0391H100.124V12.5676C100.354 12.2656 100.661 11.9636 101.198 11.9636C101.965 11.9636 102.425 12.4543 102.425 13.247V15.3986H101.658V13.5113C101.658 12.9828 101.389 12.6808 100.929 12.6808C100.469 12.6808 100.162 12.9828 100.162 13.5113V15.3986H100.124Z" fill="#231F20"/>
<path d="M107.181 13.9643H106.299V15.3987H105.493V10.9822H107.257C108.293 10.9822 108.983 11.5484 108.983 12.4921C109.021 13.4736 108.178 13.9643 107.181 13.9643ZM107.219 11.6616H106.299V13.2471H107.219C107.832 13.2471 108.178 12.9073 108.178 12.4544C108.216 11.9636 107.832 11.6616 107.219 11.6616Z" fill="#231F20"/>
<path d="M111.207 14.8707C111.591 14.8707 111.859 14.7197 112.128 14.4554L112.588 14.8707C112.281 15.2481 111.821 15.5124 111.207 15.5124C110.21 15.5124 109.443 14.7952 109.443 13.776C109.443 12.7945 110.133 12.0396 111.092 12.0396C112.166 12.0396 112.741 12.87 112.741 13.8515C112.741 13.927 112.741 14.0025 112.741 14.0779H110.21C110.325 14.5687 110.709 14.8707 111.207 14.8707ZM111.974 13.5117C111.936 13.021 111.629 12.6435 111.092 12.6435C110.632 12.6435 110.287 13.021 110.21 13.5117H111.974Z" fill="#231F20"/>
<path d="M114.39 15.3986H113.623V12.0391H114.39V12.7941C114.62 12.3033 115.004 11.9636 115.579 11.9636V12.7941H115.541C114.851 12.7941 114.39 13.247 114.39 14.1152V15.3986Z" fill="#231F20"/>
<path d="M116.46 11.5483V10.8311H117.304V11.5483H116.46ZM116.499 15.3986V12.039H117.266V15.3986H116.499Z" fill="#231F20"/>
<path d="M119.989 15.4742C118.954 15.4742 118.187 14.6815 118.187 13.7378C118.187 12.7563 118.954 11.9636 119.989 11.9636C121.024 11.9636 121.791 12.7563 121.791 13.7C121.83 14.6815 121.024 15.4742 119.989 15.4742ZM119.989 12.6431C119.375 12.6431 118.954 13.1338 118.954 13.7C118.954 14.304 119.375 14.7947 119.989 14.7947C120.603 14.7947 121.024 14.304 121.024 13.7378C121.024 13.1338 120.603 12.6431 119.989 12.6431Z" fill="#231F20"/>
<path d="M124.475 15.4742C123.9 15.4742 123.555 15.2099 123.325 14.8702V16.4179H122.558V12.0391H123.325V12.6053C123.593 12.2656 123.939 11.9636 124.475 11.9636C125.281 11.9636 126.048 12.6053 126.048 13.7C126.086 14.8702 125.281 15.4742 124.475 15.4742ZM124.322 12.6431C123.785 12.6431 123.325 13.0583 123.325 13.7378C123.325 14.3795 123.785 14.8325 124.322 14.8325C124.859 14.8325 125.281 14.4172 125.281 13.7378C125.281 13.0583 124.82 12.6431 124.322 12.6431Z" fill="#231F20"/>
<path d="M128.387 14.8707C128.77 14.8707 129.039 14.7197 129.307 14.4554L129.767 14.8707C129.461 15.2481 129.001 15.5124 128.387 15.5124C127.39 15.5124 126.623 14.7952 126.623 13.776C126.623 12.7945 127.313 12.0396 128.272 12.0396C129.346 12.0396 129.921 12.87 129.921 13.8515C129.921 13.927 129.921 14.0025 129.921 14.0779H127.428C127.505 14.5687 127.889 14.8707 128.387 14.8707ZM129.154 13.5117C129.116 13.021 128.809 12.6435 128.272 12.6435C127.812 12.6435 127.467 13.021 127.39 13.5117H129.154Z" fill="#231F20"/>
<path d="M131.569 15.3986H130.802V12.0391H131.569V12.7941C131.799 12.3033 132.183 11.9636 132.758 11.9636V12.7941H132.72C132.03 12.7941 131.569 13.247 131.569 14.1152V15.3986Z" fill="#231F20"/>
<path d="M135.558 15.3986V14.9834C135.328 15.2476 134.982 15.4741 134.446 15.4741C133.794 15.4741 133.218 15.0966 133.218 14.4549C133.218 13.7376 133.794 13.3601 134.599 13.3601C135.021 13.3601 135.289 13.4356 135.558 13.5111V13.4356C135.558 12.9826 135.251 12.7184 134.714 12.7184C134.33 12.7184 134.062 12.7939 133.755 12.9449L133.525 12.3409C133.909 12.1899 134.254 12.0767 134.829 12.0767C135.826 12.0767 136.325 12.6051 136.325 13.5111V15.5118H135.558V15.3986ZM135.558 14.0019C135.366 13.9264 135.097 13.8509 134.791 13.8509C134.292 13.8509 134.024 14.0396 134.024 14.3794C134.024 14.6814 134.33 14.8701 134.676 14.8701C135.174 14.8701 135.596 14.5681 135.596 14.1529V14.0019H135.558Z" fill="#231F20"/>
<path d="M138.242 14.3795C138.242 14.6815 138.396 14.7947 138.664 14.7947C138.856 14.7947 139.009 14.757 139.163 14.6815V15.3232C138.971 15.4365 138.741 15.512 138.472 15.512C137.897 15.512 137.475 15.2477 137.475 14.5305V12.7563H137.054V12.0769H137.475V11.1709H138.242V12.0769H139.163V12.7563H138.242V14.3795Z" fill="#231F20"/>
<path d="M140.006 11.5483V10.8311H140.85V11.5483H140.006ZM140.044 15.3986V12.039H140.811V15.3986H140.044Z" fill="#231F20"/>
<path d="M144.263 12.0396H145.068L143.687 15.4369H142.997L141.578 12.0396H142.422L143.342 14.4932L144.263 12.0396Z" fill="#231F20"/>
<path d="M147.216 14.8707C147.599 14.8707 147.868 14.7197 148.136 14.4554L148.596 14.8707C148.289 15.2481 147.829 15.5124 147.216 15.5124C146.219 15.5124 145.452 14.7952 145.452 13.776C145.452 12.7945 146.142 12.0396 147.101 12.0396C148.174 12.0396 148.75 12.87 148.75 13.8515C148.75 13.927 148.75 14.0025 148.75 14.0779H146.257C146.334 14.5687 146.717 14.8707 147.216 14.8707ZM147.983 13.5117C147.944 13.021 147.638 12.6435 147.101 12.6435C146.64 12.6435 146.295 13.021 146.219 13.5117H147.983Z" fill="#231F20"/>
<path d="M99.6259 23.0993C98.3221 23.0993 97.325 22.0802 97.325 20.7967C97.325 19.5133 98.2837 18.4941 99.6643 18.4941C100.508 18.4941 101.006 18.7961 101.428 19.1736L100.93 19.7398C100.585 19.4001 100.163 19.1736 99.6643 19.1736C98.7822 19.1736 98.1687 19.8908 98.1687 20.759C98.1687 21.6272 98.7822 22.3444 99.6643 22.3444C100.201 22.3444 100.585 22.1179 100.968 21.7782L101.467 22.2689C100.968 22.7974 100.47 23.0993 99.6259 23.0993Z" fill="#231F20"/>
<path d="M103.767 22.4955C104.151 22.4955 104.419 22.3445 104.688 22.0802L105.148 22.4955C104.841 22.873 104.381 23.1372 103.767 23.1372C102.77 23.1372 102.003 22.42 102.003 21.4008C102.003 20.4193 102.693 19.6643 103.652 19.6643C104.726 19.6643 105.301 20.4948 105.301 21.4763C105.301 21.5517 105.301 21.6272 105.301 21.7027H102.809C102.885 22.1935 103.269 22.4955 103.767 22.4955ZM104.534 21.1365C104.496 20.6458 104.189 20.2683 103.652 20.2683C103.192 20.2683 102.847 20.6458 102.77 21.1365H104.534Z" fill="#231F20"/>
<path d="M106.835 23.0242H106.068V19.6646H106.835V20.4196C107.065 19.9288 107.448 19.5891 108.024 19.5891V20.4196H107.985C107.295 20.4196 106.835 20.8726 106.835 21.7408V23.0242Z" fill="#231F20"/>
<path d="M109.712 22.005C109.712 22.307 109.865 22.4203 110.133 22.4203C110.325 22.4203 110.478 22.3825 110.632 22.307V22.9488C110.44 23.062 110.21 23.1375 109.942 23.1375C109.366 23.1375 108.945 22.8733 108.945 22.156V20.3818H108.523V19.7024H108.945V18.7964H109.712V19.7024H110.632V20.3818H109.712V22.005Z" fill="#231F20"/>
<path d="M111.476 19.1738V18.4565H112.319V19.1738H111.476ZM111.514 23.0241V19.6645H112.281V23.0241H111.514Z" fill="#231F20"/>
<path d="M115.234 19.7025V20.3443H114.352V23.0244H113.585V20.3443H113.163V19.7025H113.585V19.476C113.585 18.7211 113.968 18.3813 114.62 18.3813C114.889 18.3813 115.08 18.4191 115.234 18.4568V19.0986C115.08 19.0608 114.927 19.0231 114.774 19.0231C114.467 19.0231 114.313 19.1741 114.313 19.5138V19.7025H115.234Z" fill="#231F20"/>
<path d="M116.038 19.1738V18.4565H116.882V19.1738H116.038ZM116.077 23.0241V19.6645H116.844V23.0241H116.077Z" fill="#231F20"/>
<path d="M119.375 23.0997C118.378 23.0997 117.611 22.307 117.611 21.3633C117.611 20.4196 118.378 19.5891 119.375 19.5891C120.027 19.5891 120.41 19.8156 120.756 20.1553L120.257 20.6838C120.027 20.4196 119.759 20.2686 119.375 20.2686C118.8 20.2686 118.378 20.7593 118.378 21.3255C118.378 21.9295 118.8 22.4202 119.413 22.4202C119.797 22.4202 120.065 22.2315 120.295 22.005L120.756 22.458C120.41 22.8355 120.027 23.0997 119.375 23.0997Z" fill="#231F20"/>
<path d="M123.631 23.024V22.6088C123.401 22.873 123.056 23.0995 122.519 23.0995C121.867 23.0995 121.292 22.722 121.292 22.0803C121.292 21.3631 121.867 20.9856 122.673 20.9856C123.095 20.9856 123.363 21.0611 123.631 21.1366V21.0611C123.631 20.6081 123.325 20.3439 122.788 20.3439C122.404 20.3439 122.136 20.4194 121.829 20.5704L121.599 19.9664C121.983 19.8154 122.328 19.7021 122.903 19.7021C123.9 19.7021 124.398 20.2306 124.398 21.1366V23.024H123.631ZM123.631 21.6273C123.44 21.5518 123.171 21.4763 122.865 21.4763C122.366 21.4763 122.098 21.6651 122.098 22.0048C122.098 22.3068 122.404 22.4955 122.749 22.4955C123.248 22.4955 123.67 22.1935 123.67 21.7783V21.6273H123.631Z" fill="#231F20"/>
<path d="M126.316 22.005C126.316 22.307 126.47 22.4203 126.738 22.4203C126.93 22.4203 127.083 22.3825 127.237 22.307V22.9488C127.045 23.062 126.815 23.1375 126.546 23.1375C125.971 23.1375 125.549 22.8733 125.549 22.156V20.3818H125.128V19.7024H125.549V18.7964H126.316V19.7024H127.237V20.3818H126.316V22.005Z" fill="#231F20"/>
<path d="M128.233 19.1738V18.4565H129.077V19.1738H128.233ZM128.272 23.0241V19.6645H129.039V23.0241H128.272Z" fill="#231F20"/>
<path d="M131.723 23.0997C130.688 23.0997 129.921 22.307 129.921 21.3633C129.921 20.3818 130.688 19.5891 131.723 19.5891C132.759 19.5891 133.526 20.3818 133.526 21.3255C133.564 22.307 132.797 23.0997 131.723 23.0997ZM131.723 20.2686C131.11 20.2686 130.688 20.7593 130.688 21.3255C130.688 21.9295 131.11 22.4202 131.723 22.4202C132.337 22.4202 132.759 21.9295 132.759 21.3633C132.797 20.7593 132.337 20.2686 131.723 20.2686Z" fill="#231F20"/>
<path d="M135.213 23.0242H134.446V19.6646H135.213V20.1931C135.443 19.8911 135.749 19.5891 136.286 19.5891C137.053 19.5891 137.513 20.0798 137.513 20.8726V23.0242H136.746V21.1368C136.746 20.6083 136.478 20.3063 136.018 20.3063C135.558 20.3063 135.251 20.6083 135.251 21.1368V23.0242H135.213Z" fill="#231F20"/>
<path d="M24.9623 17.7027C21.741 22.459 15.2218 23.7802 10.3516 20.6094C5.51972 17.4385 4.21588 10.9835 7.43713 6.22726C9.96811 2.45243 14.5699 0.867007 18.7882 1.92396C13.1894 -0.454183 6.55512 1.35773 3.06543 6.4915C-0.846086 12.267 0.764539 20.0809 6.63182 23.9312C12.4991 27.7815 20.4372 26.1961 24.3487 20.4206C25.6525 18.4954 26.3428 16.3061 26.4579 14.1544C26.1894 15.4001 25.6909 16.608 24.9623 17.7027Z" fill="#231F20"/>
<path d="M15.5669 19.2491C20.0153 19.9663 24.1952 17.0974 24.9238 12.8696C24.9238 12.7941 24.9238 12.7186 24.9621 12.6431C23.6583 15.361 20.4371 16.6067 17.5993 15.4365C14.7233 14.2286 13.3427 10.9445 14.5699 8.11335C15.6053 5.65972 18.2129 4.33853 20.7822 4.79151C19.9769 4.37628 19.0949 4.03655 18.1362 3.88555C13.6879 3.16834 9.50794 6.0372 8.77932 10.265C8.08906 14.4928 11.1185 18.5319 15.5669 19.2491Z" fill="#231F20"/>
<path d="M43.7139 0.828125C48.2006 0.828125 51.7286 2.71555 53.7994 6.1884L51.8437 8.18907C50.2331 5.39569 47.9322 3.39502 44.2125 3.39502C39.2272 3.39502 35.8142 6.98112 35.8142 13.2851C35.8142 19.7401 39.6874 23.1752 44.1358 23.2129C47.8555 23.2129 50.1564 21.5898 51.8053 18.6454L53.7227 20.0798C51.652 23.7792 48.1623 25.8931 43.4838 25.8931C36.4278 25.8931 30.5606 21.1368 30.5606 13.5871C30.5606 6.03741 36.3895 0.828125 43.7139 0.828125Z" fill="#231F20"/>
<path d="M68.2953 0.903564C72.782 0.903564 76.31 2.79098 78.3808 6.26383L76.425 8.2645C74.8528 5.47112 72.5135 3.5082 68.7938 3.5082C63.8085 3.5082 60.4339 7.0943 60.4339 13.3983C60.4339 19.8532 64.3071 23.2883 68.7554 23.3261C72.4752 23.3261 74.7761 21.7029 76.425 18.7585L78.3424 20.193C76.2716 23.8923 72.782 26.0062 68.1035 26.0062C61.0475 26.0062 55.1419 21.2499 55.1419 13.6625C55.1803 6.07509 61.0091 0.903564 68.2953 0.903564Z" fill="#231F20"/>
<path d="M85.7051 26.0061H81.1031V0.752441H85.7051V26.0061Z" fill="#231F20"/>
<path d="M87.7764 3.01734C87.7764 1.77165 88.7734 0.752441 90.0772 0.752441C91.3427 0.752441 92.3781 1.77165 92.3781 3.01734C92.3781 4.26303 91.3427 5.28224 90.0772 5.28224C88.8118 5.28224 87.7764 4.26303 87.7764 3.01734ZM91.7645 3.01734C91.7645 1.99813 91.0743 1.28092 90.0772 1.28092C89.0802 1.28092 88.3899 1.99813 88.3899 3.01734C88.3899 4.03654 89.0802 4.75376 90.0772 4.75376C91.0359 4.75376 91.7645 4.03654 91.7645 3.01734ZM91.1893 4.26303H90.5757L90.0389 3.24383H89.6171V4.26303H89.1185V1.80939H90.3073C90.9592 1.80939 91.266 1.99813 91.266 2.56436C91.266 3.01734 91.0359 3.20608 90.5757 3.20608L91.1893 4.26303ZM90.3457 2.86635C90.6141 2.86635 90.8058 2.79085 90.8058 2.48886C90.8058 2.14913 90.4607 2.18688 90.2306 2.18688H89.6554V2.86635H90.3457Z" fill="#231F20"/>
</svg>
