<svg xmlns="http://www.w3.org/2000/svg" width="346" height="346" viewBox="0 0 346 346">
  <defs>
    <style>
      .cls-1 {
        fill-rule: evenodd;
      }
    </style>
  </defs>
  <path id="Triangle_1_copy_2" data-name="Triangle 1 copy 2" class="cls-1" d="M170.939,60.892c65.493-1.041,117.288,33.511,145.7,69.739a278.759,278.759,0,0,1,21.384,31.28c1.257,2.137,5.861,8.314,5.107,11.649-0.927,4.1-4.339,8.4-6.383,11.81a276.988,276.988,0,0,1-20.108,29.045c-23.369,29.757-55.176,51.068-96.072,63.356-8.234,2.474-17.077,3.457-26.172,5.107L180.674,284H170.461c-15.344-.956-28.488-1.826-40.855-5.267-43.344-12.059-76.1-33.2-100.38-64.154a281.378,281.378,0,0,1-21.066-30.8c-1.349-2.278-6.529-9.382-5.266-12.927l5.266-9.575A272.069,272.069,0,0,1,24.917,135.9c22.646-29.962,53.325-53.939,93.2-66.548,10.4-3.29,21.353-5.042,33.194-7.181ZM170.78,70.946l-16.438.957c-10.8,1.884-20.969,3.1-30.481,6.064-39.367,12.287-69.728,34.973-91.6,64.792-5.363,7.311-10.218,14.748-15,22.821-1.266,2.137-3.247,4.537-3.83,7.181l5.9,10.693a232.59,232.59,0,0,0,13.884,20.427c21.163,28.021,48.97,47.53,84.581,61.282,9.215,3.558,19.576,5.115,30.162,7.181,17.542,3.424,41.2,2.146,57.292-1.436,34.237-7.623,55.152-19.116,78.357-37.344a125.261,125.261,0,0,0,20.268-19.629c7.512-9.363,14.817-18.34,21.384-28.885,2.287-3.672,6.187-8.268,7.182-12.767q-3.911-6.862-7.82-13.725a255.447,255.447,0,0,0-15.161-21.225C281.88,101.916,233.9,70.908,170.78,70.946ZM169.663,87.7c42.015-.74,69.583,23.593,81.708,52.824,7.925,19.1,8.13,45.294,0,64.473-10.255,24.194-29.211,41.325-55.7,49.313-6.018,1.815-12.442,1.862-19.469,3.032-8.822,1.469-21.927-1.889-28.088-3.83-23.357-7.36-40.224-21.954-50.589-42.291a93.322,93.322,0,0,1-7.66-22.023c-0.581-2.507-2.029-7.295-.479-9.735,1.9-2.983,7.027-2.885,8.777.16l1.277,7.181q1.675,5.983,3.352,11.969c5.316,13.525,13.673,24.912,24.416,33.035a79.689,79.689,0,0,0,24.258,12.448c39.728,12.47,72.669-11.341,86.656-34.95,9.24-15.6,13.024-42.409,5.106-62.558-8.849-22.522-25.043-38.354-48.993-45.8-10.242-3.185-26.006-4.4-37.662-1.436-24.123,6.141-39.118,19.839-50.27,38.939-2.7,4.617-4.611,10.515-6.065,16.119-0.7,2.717-.564,6.881-2.074,8.936-1.233,1.678-4.85,2.705-7.022,1.118-2.59-1.893-2.184-6.022-1.277-9.576a98.853,98.853,0,0,1,7.66-21.225c10.131-19.57,25.691-32.991,47.078-41.333,5.286-2.062,11.277-3.022,17.4-4.149ZM306.556,38.869H283.575c-4.957,0-10.412.065-10.412,0.065s0.039-8.291.039-21.29c0-8.459.053-15.265-.035-15.265s7.648-.056,16.313-0.056h37.343c8.846,0,16.4-.121,16.4-0.121S343.1,9.165,343.1,17.165v38.78c0,4.832.086,16.476,0.086,16.476s-11.075-.2-15.406-0.2c-4.76,0-21.152-.081-21.152-0.081s-0.073-6.3-.073-10.293V38.869Zm26.491-26.492H283.256V28.815h22.821c5.244,0,10.544-.168,10.544-0.168s-0.011,6.294-.011,11.5V62.169h16.437V12.377ZM39.28,307.148H62.26c4.957,0,10.413-.065,10.413-0.065s-0.039,8.291-.039,21.29c0,8.459-.053,15.265.035,15.265s-7.648.055-16.313,0.055H19.012c-8.846,0-16.4.121-16.4,0.121s0.117-6.962.117-14.962v-38.78c0-4.832-.086-16.476-0.086-16.476s11.075,0.2,15.407.2c4.759,0,21.152.08,21.152,0.08s0.073,6.3.073,10.293v22.981ZM12.788,333.639H62.58V317.2H39.759c-5.244,0-10.544.168-10.544,0.168s0.011-6.294.011-11.5V283.848H12.788v49.791Zm293.949-26.508v-22.98c0-4.957-.065-10.413-0.065-10.413s8.291,0.039,21.29.039c8.459,0,15.264.053,15.264-.034s0.056,7.648.056,16.312V327.4c0,8.846.121,16.395,0.121,16.395s-6.962-.117-14.963-0.117H289.661c-4.832,0-16.477.086-16.477,0.086s0.2-11.075.2-15.407c0-4.759.08-21.151,0.08-21.151s6.3-.074,10.293-0.074h22.981Zm26.491,26.492V283.831H316.791v22.821c0,5.245.168,10.544,0.168,10.544s-6.294-.011-11.5-0.011H283.437v16.438h49.791ZM173.987,125.164l42.853,74.2H131.133ZM39.384,39V61.979c0,4.957.065,10.413,0.065,10.413s-8.291-.039-21.29-0.039c-8.459,0-15.265-.053-15.265.035s-0.056-7.648-.056-16.313V18.731c0-8.846-.121-16.4-0.121-16.4s6.962,0.117,14.962.117h38.78c4.832,0,16.476-.086,16.476-0.086s-0.2,11.075-.2,15.407c0,4.76-.081,21.152-0.081,21.152S66.355,39,62.364,39H39.384ZM12.892,12.507V62.3H29.33V39.477c0-5.244-.168-10.544-0.168-10.544s6.294,0.011,11.5.011H62.683V12.507H12.892Z"/>
</svg>
