<svg xmlns="http://www.w3.org/2000/svg" width="87" height="87" viewBox="0 0 87 87">
  <defs>
    <style>
      .cls-1, .cls-2 {
        stroke: #000;
        fill-rule: evenodd;
      }

      .cls-1 {
        stroke-width: 1px;
      }

      .cls-2 {
        fill: none;
        stroke-width: 3px;
      }
    </style>
  </defs>
  <path id="web_1" data-name="web 1" class="cls-1" d="M42.354,2c20.184-.282,33.194,11.054,39.168,24.97,2.551,5.942,4.609,15.106,2.778,23.365a55.744,55.744,0,0,1-2.935,9.745c-4.6,10.832-12.5,19.154-24.221,22.856a63.959,63.959,0,0,1-7.787,1.644l-4.382.313a22.351,22.351,0,0,1-5.83-.274c-1.414-.258-2.718-0.3-4.03-0.626a53.446,53.446,0,0,1-8.335-2.74C15.17,76.228,7.372,67.621,3.538,54.763,2.269,50.5,1.446,42.8,2.443,37.5A47.186,47.186,0,0,1,4.36,29.245C9.248,16.661,17.384,9.285,29.95,4.392a47.812,47.812,0,0,1,8.1-2ZM42.2,28.7V4.784a22.587,22.587,0,0,0-3.209.9c-5.139,2.249-8.395,7.4-10.643,12.563a49.841,49.841,0,0,0-1.917,5.088,3.842,3.842,0,0,0-.352,1.252l3.483,1.566A34,34,0,0,0,42.2,28.7Zm2.661,0a33.363,33.363,0,0,0,12.6-2.583c1-.4,2.871-0.919,3.561-1.6-0.592-1.624-.993-3.268-1.643-4.814C57.025,14.11,53.553,8.075,48.067,5.684a25.642,25.642,0,0,0-3.209-.9V28.7ZM53.193,5.919C53.986,6.926,55.126,7.68,55.932,8.7a49.65,49.65,0,0,1,3.952,5.949,40.415,40.415,0,0,1,2.5,5.636l1.017,2.935A38.142,38.142,0,0,0,69.588,18.6l1.956-1.879a16.08,16.08,0,0,0-2.739-2.583C64.414,10.642,59.573,7.428,53.193,5.919Zm-19.486.039-1.526.431-3.756,1.37A44.267,44.267,0,0,0,17.86,14.49a13.5,13.5,0,0,0-2.348,2.231l1.565,1.6,1.409,1.252c1.122,0.887,2.233,1.738,3.443,2.544a5.347,5.347,0,0,0,1.8,1.1,20.326,20.326,0,0,1,1.683-4.7,42.762,42.762,0,0,1,5.2-9.2L32.924,6.78l0.9-.822H33.707ZM4.83,42.121h16A52.791,52.791,0,0,1,22.085,29.91c0.128-.549.845-3.9,0.783-3.992L21.5,25.1l-2.856-1.957-3.522-2.974-1.409-1.409-0.117.078-1.252,1.6-2.113,3.17A36.78,36.78,0,0,0,4.83,42.121Zm61.393,0h16a21.9,21.9,0,0,0-.43-4.54A40.345,40.345,0,0,0,76.67,23.452c-0.913-1.468-2.045-3.634-3.326-4.7l-1.369,1.37c-1.343,1.084-2.573,2.313-3.991,3.327l-3.052,2.035-0.822.43,0.235,1.018,0.626,2.9A55.683,55.683,0,0,1,66.223,42.121Zm-42.729,0H42.2V31.4a36.386,36.386,0,0,1-13.03-2.544L25.333,27.21l-1.057,5.4A65.6,65.6,0,0,0,23.494,42.121ZM44.859,31.4V42.121h18.7A64.284,64.284,0,0,0,62.7,32.1L61.723,27.21H61.684A42.03,42.03,0,0,1,44.859,31.4ZM4.83,44.782a23.249,23.249,0,0,0,.509,5.049,40.612,40.612,0,0,0,4.969,13.5c0.87,1.425,2.192,3.808,3.4,4.814L15.942,66a40.339,40.339,0,0,1,7-5.01L22.007,56.8a56.915,56.915,0,0,1-1.174-12.015h-16Zm18.665,0A64.285,64.285,0,0,0,24.355,54.8l0.978,4.892h0.039A42,42,0,0,1,42.2,55.506V44.782h-18.7Zm21.364,0V55.506A36.724,36.724,0,0,1,57.928,58.05l3.8,1.644,1.056-5.4a65.612,65.612,0,0,0,.783-9.51h-18.7Zm21.365,0a51.2,51.2,0,0,1-1.252,12.289l-0.626,2.9L64.11,60.985l0.822,0.431,3.052,2.035c1.419,1.013,2.645,2.247,3.991,3.327l1.369,1.37,0.117-.078,1.37-1.761,2.27-3.483a36.577,36.577,0,0,0,5.126-18.042h-16ZM42.2,58.207A33.4,33.4,0,0,0,29.6,60.79c-1,.4-2.872.92-3.561,1.6,0.592,1.624.993,3.268,1.643,4.814,2.35,5.586,5.822,11.621,11.308,14.011a25.633,25.633,0,0,0,3.209.9V58.207Zm2.661,0V82.12a22.579,22.579,0,0,0,3.209-.9c5.561-2.434,8.842-8.19,11.23-13.816,0.682-1.607,1.071-3.329,1.722-5.01-0.772-.728-2.666-1.255-3.756-1.683A34.7,34.7,0,0,0,44.859,58.207Zm18.508,5.44A47.508,47.508,0,0,1,57.184,76.6L54.876,79.38l-1.643,1.566a16.48,16.48,0,0,0,3.482-1.1,42.881,42.881,0,0,0,11-6.184,19.9,19.9,0,0,0,3.835-3.483,12.762,12.762,0,0,0-2.113-2.035A40.714,40.714,0,0,0,63.367,63.647Zm-39.755.039L21.694,64.9c-1.951,1.373-4.784,3.421-6.182,5.284L17,71.709,18.446,73l3.013,2.309a36.072,36.072,0,0,0,12.4,5.675l-2.309-2.27a37.862,37.862,0,0,1-5.321-8.336l-1.917-4.736C24.123,65.144,24.026,63.969,23.611,63.686Z"/>
  <path class="cls-2" d="M2,2H85V85H2V2H2Z"/>
</svg>
