<svg xmlns="http://www.w3.org/2000/svg" width="350" height="396" viewBox="0 0 350 396">
  <defs>
    <style>
      .cls-1 {
        fill-rule: evenodd;
      }
    </style>
  </defs>
  <path id="iluminati_1" data-name="iluminati 1" class="cls-1" d="M320.7,136.6A21.273,21.273,0,1,1,342,115.328,21.286,21.286,0,0,1,320.7,136.6Zm-125.39,44.488a28.526,28.526,0,0,0-18.514-10.4h0l-0.345-48.6H291.624a28.362,28.362,0,0,0,4.064,8.865L195.311,181.089h0Zm-18.859-68.662s0.363-31.49.393-54.286a28.534,28.534,0,0,0,20.246-11.562l97.3,54.237a28.3,28.3,0,0,0-3.587,11.611H176.452Zm-2.9-61.883a21.272,21.272,0,1,1,21.3-21.272A21.286,21.286,0,0,1,173.548,50.545Zm-6.1,6.965-0.675,54.918H57.362a28.405,28.405,0,0,0-1.833-9.608l94.2-58.088A28.592,28.592,0,0,0,167.446,57.509ZM146.939,187.443a28.526,28.526,0,0,0-.668,21.416l-46.3,23.467L48.765,133.313a28.6,28.6,0,0,0,5.725-7.9l92.45,62.033h0ZM29.3,133.7a21.272,21.272,0,1,1,21.3-21.273A21.286,21.286,0,0,1,29.3,133.7Zm0,129.567A21.273,21.273,0,1,1,8,284.539,21.285,21.285,0,0,1,29.3,263.267Zm-0.312-7.731c-0.566-26.619-1.77-81.4-2.492-114.2,0.766,0.062,1.538.1,2.32,0.1a28.5,28.5,0,0,0,10.94-2.172l54.408,95.963s-28.835,15.535-48.053,26.135A28.443,28.443,0,0,0,28.987,255.536Zm68.217-10.6,53.179,103.987q-0.782,1.021-1.472,2.112L54.192,297.136a28.5,28.5,0,0,0-.927-27.827Zm76.345,100.524a21.273,21.273,0,1,1-21.3,21.273A21.285,21.285,0,0,1,173.548,345.455ZM290.175,271.3a28.484,28.484,0,0,0,3.155,24.368l-96.408,54.9q-0.375-.567-0.776-1.116l50.24-100.806Zm3.419-131.8L244.22,232.326l-44.58-22.918a28.516,28.516,0,0,0-.308-21.647ZM187.916,341.877a28.436,28.436,0,0,0-8.507-3.442l-2.515-111.207a28.505,28.505,0,0,0,17.361-9.141h0l44.157,25.842Zm6.93-143.394a21.3,21.3,0,1,1-21.3-21.272A21.285,21.285,0,0,1,194.846,198.483ZM167.739,122.1l-0.672,48.981a28.554,28.554,0,0,0-16.489,10.314L64.151,121.13ZM170.5,227.371h0l-0.681,110.538a28.385,28.385,0,0,0-10.544,3.356L106.748,242l43.431-25.961h0A28.529,28.529,0,0,0,170.5,227.371ZM304.99,139.555a28.408,28.408,0,0,0,12.722,3.772l-0.325,108.339-0.074,0a28.5,28.5,0,0,0-21.327,9.561l-42.085-23.1ZM317.8,259.4a21.273,21.273,0,1,1-21.3,21.273A21.286,21.286,0,0,1,317.8,259.4Z"/>
</svg>
