<svg xmlns="http://www.w3.org/2000/svg" width="600" height="588" viewBox="0 0 600 588">
  <defs>
    <style>
      .cls-1 {
        fill-rule: evenodd;
      }
    </style>
  </defs>
  <path id="stack_1" data-name="stack 1" class="cls-1" d="M200.779,179c19.925,2.564,87.19,38.256,103.8,49.654V352.788L405,402.441q-0.564,64.319-1.128,128.648c-28.47,13.706-68.666,46.54-99.29,51.911-13.9-6.66-97.46-52.887-101.547-50.782L104.874,583,4.455,529.961c-0.278-30.245-8.972-106.693,2.257-127.52l97.033-49.653V229.782Zm1.128,9.028-83.494,45.14V234.3l89.135,42.883,81.238-47.4Zm92.52,49.654L210.933,283.95V396.8l84.622-45.14Q294.991,294.676,294.427,237.682ZM103.745,361.816L19.123,406.955v1.129l89.135,42.882L189.5,404.7V403.57Zm199.708,0-84.622,45.139v1.129l89.136,42.882L389.2,404.7V403.57ZM195.137,411.469l-83.494,47.4q0.564,55.854,1.129,111.721l83.493-46.269Q195.7,467.9,195.137,411.469Zm199.708,0-83.493,47.4q0.564,55.854,1.128,111.721l83.494-46.269Q395.41,467.9,394.845,411.469Z"/>
  <path id="stack_1_copy" data-name="stack 1 copy" class="cls-1" d="M297.907,9.028l-83.494,45.14V55.3l89.135,42.883,81.238-47.4ZM393,57c-27.828,15.421-58.238,32.528-86.067,47.95V217.8C335.138,202.754,361.8,186.045,390,171,389.624,133.011,393.376,94.989,393,57ZM303,231c0,0.376,1,.6-102-49,0-4.75-1.255-90.22-1.255-131.218L296.779,0c19.925,2.564,87.19,38.256,103.8,49.654C400.582,91.028,397,137.626,397,179"/>
  <path id="stack_1_copy_2" data-name="stack 1 copy 2" class="cls-1" d="M396.907,188.028l-83.494,45.14V234.3l89.135,42.883,81.238-47.4Zm92.52,49.654L405.933,283.95V396.8l84.622-45.14Q489.991,294.676,489.427,237.682ZM402,531c4.087-2.105,83.682,45.34,97.582,52,30.624-5.371,70.82-38.205,99.29-51.911q0.564-64.317,1.128-128.648L499.582,352.788V228.654c-16.613-11.4-83.878-47.09-103.8-49.654-32.342,16.926-59.438,33.074-91.779,50,0,41-1,119.25-1,124,94.367,47,93.2,46.576,101,50m94.453-41.184-84.622,45.139v1.129l89.136,42.882L584.2,404.7V403.57Zm91.392,49.653-83.493,47.4q0.564,55.854,1.128,111.721l83.494-46.269Q590.41,467.9,589.845,411.469Z"/>
</svg>
